STARTFONT 2.1
FONT -Monotype-Century Gothic-Regular-I-Normal--24-240-75-75-P-118-iso8859-2
SIZE 24 75 75
FONTBOUNDINGBOX 33 30 -5 -6

STARTPROPERTIES 24
FOUNDRY "Monotype"
FAMILY_NAME "Century Gothic"
WEIGHT_NAME "Regular"
SLANT "I"
SETWIDTH_NAME "Normal"
ADD_STYLE_NAME ""
PIXEL_SIZE 24
POINT_SIZE 240
RESOLUTION_X 75
RESOLUTION_Y 75
SPACING "P"
AVERAGE_WIDTH 118
CHARSET_REGISTRY "iso8859"
CHARSET_ENCODING "2"
FACE_NAME "Century Gothic Italic ISO Latin2"
_DEC_DEVICE_FONTNAMES "PS=centurygothic-it-lat2"
COPYRIGHT "Copyright (c) 1993 Monotype Typography Ltd."
CAP_HEIGHT 21
X_HEIGHT 15
WEIGHT 10
QUAD_WIDTH 14
DEFAULT_CHAR 160
FONT_DESCENT 6
FONT_ASCENT 24
ENDPROPERTIES

CHARS 191

STARTCHAR space
ENCODING 32
SWIDTH 277 0
DWIDTH 7 0
BBX 0 0 0 0
BITMAP
ENDCHAR

STARTCHAR exclam
ENCODING 33
SWIDTH 295 0
DWIDTH 7 0
BBX 5 18 1 0
BITMAP
18
10
10
30
30
30
30
30
20
20
60
60
60
60
00
40
E0
E0
ENDCHAR

STARTCHAR quotedbl
ENCODING 34
SWIDTH 309 0
DWIDTH 8 0
BBX 7 6 1 12
BITMAP
C6
C6
C6
C6
C6
C6
ENDCHAR

STARTCHAR numbersign
ENCODING 35
SWIDTH 720 0
DWIDTH 18 0
BBX 14 19 2 0
BITMAP
0430
0430
0430
0420
0C20
0C20
7FFC
0860
0860
0840
1840
FFF8
1840
1040
10C0
10C0
1080
3080
3080
ENDCHAR

STARTCHAR dollar
ENCODING 36
SWIDTH 554 0
DWIDTH 14 0
BBX 12 23 0 -4
BITMAP
0180
07C0
0FE0
19B0
3110
3100
3300
1B00
0F00
0780
03C0
0260
0630
0630
4630
C630
66E0
3FC0
0F00
0C00
0C00
0C00
0C00
ENDCHAR

STARTCHAR percent
ENCODING 37
SWIDTH 775 0
DWIDTH 19 0
BBX 17 20 1 -1
BITMAP
000380
1FFE00
318200
608400
408C00
409800
619000
632000
3E6000
00C000
008000
011F00
033180
066080
0C4080
084080
106180
306300
603E00
C00000
ENDCHAR

STARTCHAR ampersand
ENCODING 38
SWIDTH 757 0
DWIDTH 19 0
BBX 16 18 1 0
BITMAP
03C0
07E0
0C30
0C30
0C30
0E60
06C0
0300
0F80
1D80
70C0
6063
C03E
C01C
C078
61EC
7F86
1E03
ENDCHAR

STARTCHAR quoteright
ENCODING 39
SWIDTH 351 0
DWIDTH 9 0
BBX 2 7 4 11
BITMAP
C0
C0
C0
40
C0
80
80
ENDCHAR

STARTCHAR parenleft
ENCODING 40
SWIDTH 369 0
DWIDTH 9 0
BBX 7 24 2 -5
BITMAP
06
0C
08
18
18
30
30
20
60
60
60
60
C0
C0
C0
C0
C0
C0
C0
C0
C0
C0
40
60
ENDCHAR

STARTCHAR parenright
ENCODING 41
SWIDTH 369 0
DWIDTH 9 0
BBX 7 24 -1 -5
BITMAP
0C
06
06
06
06
06
06
06
06
06
06
06
04
0C
0C
0C
08
18
18
10
30
30
60
C0
ENDCHAR

STARTCHAR asterisk
ENCODING 42
SWIDTH 425 0
DWIDTH 11 0
BBX 9 9 1 9
BITMAP
0C00
0800
C980
7B00
0C00
3B00
E980
0800
0C00
ENDCHAR

STARTCHAR plus
ENCODING 43
SWIDTH 606 0
DWIDTH 15 0
BBX 12 12 2 3
BITMAP
0600
0600
0600
0600
0600
FFF0
FFF0
0600
0600
0600
0600
0600
ENDCHAR

STARTCHAR comma
ENCODING 44
SWIDTH 277 0
DWIDTH 7 0
BBX 4 5 0 -2
BITMAP
30
60
40
C0
80
ENDCHAR

STARTCHAR minus
ENCODING 45
SWIDTH 606 0
DWIDTH 15 0
BBX 13 2 1 8
BITMAP
FFF8
FFF8
ENDCHAR

STARTCHAR period
ENCODING 46
SWIDTH 277 0
DWIDTH 7 0
BBX 3 3 1 0
BITMAP
E0
E0
E0
ENDCHAR

STARTCHAR slash
ENCODING 47
SWIDTH 437 0
DWIDTH 11 0
BBX 9 21 1 -3
BITMAP
0180
0180
0300
0300
0300
0600
0600
0600
0C00
0C00
0800
1800
1800
3000
3000
3000
6000
6000
6000
C000
C000
ENDCHAR

STARTCHAR zero
ENCODING 48
SWIDTH 554 0
DWIDTH 14 0
BBX 12 18 1 0
BITMAP
0780
0FC0
1860
3030
6030
6030
6030
C030
C030
C030
C020
C060
C060
C040
40C0
6180
3F00
1E00
ENDCHAR

STARTCHAR one
ENCODING 49
SWIDTH 554 0
DWIDTH 14 0
BBX 4 18 5 0
BITMAP
F0
F0
30
30
30
30
20
60
60
60
60
60
60
40
40
C0
C0
C0
ENDCHAR

STARTCHAR two
ENCODING 50
SWIDTH 554 0
DWIDTH 14 0
BBX 13 18 -1 0
BITMAP
03C0
0FF0
1C30
1818
1818
3018
0018
0030
0060
00E0
01C0
0380
0700
0E00
0C00
1000
3FF0
FFF0
ENDCHAR

STARTCHAR three
ENCODING 51
SWIDTH 554 0
DWIDTH 14 0
BBX 12 18 0 0
BITMAP
0780
0FE0
1860
3030
0030
0030
0060
03C0
0380
00E0
0020
0030
0030
C030
6060
70E0
3FC0
0F00
ENDCHAR

STARTCHAR four
ENCODING 52
SWIDTH 554 0
DWIDTH 14 0
BBX 13 18 -1 0
BITMAP
0010
0030
0030
0060
00E0
01A0
0360
0260
0660
0C60
1840
3040
7FF8
FFF8
00C0
00C0
00C0
00C0
ENDCHAR

STARTCHAR five
ENCODING 53
SWIDTH 554 0
DWIDTH 14 0
BBX 13 18 0 0
BITMAP
03F8
07F8
0600
0600
0400
0C00
0F80
1FC0
0060
0030
0030
0030
0030
2030
E060
70E0
3FC0
0F00
ENDCHAR

STARTCHAR six
ENCODING 54
SWIDTH 554 0
DWIDTH 14 0
BBX 12 18 0 0
BITMAP
00C0
0180
0380
0700
0600
0800
1F00
3FC0
70E0
6030
C030
C030
C030
C030
6060
70E0
3FC0
0F00
ENDCHAR

STARTCHAR seven
ENCODING 55
SWIDTH 554 0
DWIDTH 14 0
BBX 13 18 1 0
BITMAP
7FF8
7FF0
0060
00C0
00C0
0180
0300
0300
0600
0C00
0C00
1800
3000
3000
6000
C000
C000
8000
ENDCHAR

STARTCHAR eight
ENCODING 56
SWIDTH 554 0
DWIDTH 14 0
BBX 12 18 0 0
BITMAP
0780
0FE0
1870
3030
3030
3030
1860
0FC0
1FC0
3060
6020
C030
C030
C030
C060
60E0
3FC0
1F00
ENDCHAR

STARTCHAR nine
ENCODING 57
SWIDTH 554 0
DWIDTH 14 0
BBX 12 18 1 0
BITMAP
0F00
3FC0
70E0
6070
C030
C030
C030
C030
6060
70E0
3FC0
0E80
0300
0600
0C00
1C00
3800
1000
ENDCHAR

STARTCHAR colon
ENCODING 58
SWIDTH 277 0
DWIDTH 7 0
BBX 5 14 0 0
BITMAP
38
38
38
00
00
00
00
00
00
00
00
E0
E0
E0
ENDCHAR

STARTCHAR semicolon
ENCODING 59
SWIDTH 277 0
DWIDTH 7 0
BBX 6 16 -1 -2
BITMAP
1C
1C
1C
00
00
00
00
00
00
00
18
30
30
60
C0
40
ENDCHAR

STARTCHAR less
ENCODING 60
SWIDTH 606 0
DWIDTH 15 0
BBX 13 14 1 2
BITMAP
0008
0018
00F0
03C0
0F00
3C00
F000
F000
3C00
0F00
03C0
00F0
0018
0008
ENDCHAR

STARTCHAR equal
ENCODING 61
SWIDTH 606 0
DWIDTH 15 0
BBX 13 7 1 5
BITMAP
FFF8
FFF8
0000
0000
0000
FFF8
FFF8
ENDCHAR

STARTCHAR greater
ENCODING 62
SWIDTH 606 0
DWIDTH 15 0
BBX 13 14 1 2
BITMAP
8000
C000
7800
1E00
0780
01E0
0038
0078
01E0
0780
1E00
7800
E000
8000
ENDCHAR

STARTCHAR question
ENCODING 63
SWIDTH 591 0
DWIDTH 15 0
BBX 10 19 3 0
BITMAP
1F00
3F80
60C0
C0C0
C0C0
C0C0
0380
0F00
3C00
7000
C100
C100
C300
7E00
1C00
0000
3000
3800
3800
ENDCHAR

STARTCHAR at
ENCODING 64
SWIDTH 867 0
DWIDTH 22 0
BBX 18 19 2 0
BITMAP
03F800
0E0E00
180300
300180
600080
41EC40
C33C40
861840
8C0840
8C0840
8C1840
8C1880
4C1900
463200
63DC00
300180
180300
0E0E00
01F800
ENDCHAR

STARTCHAR A
ENCODING 65
SWIDTH 740 0
DWIDTH 18 0
BBX 16 18 0 0
BITMAP
0020
0060
0060
00F0
01B0
01B0
0318
0318
0618
0C0C
0FFC
1FFC
1806
3006
3002
6003
C003
C003
ENDCHAR

STARTCHAR B
ENCODING 66
SWIDTH 574 0
DWIDTH 14 0
BBX 13 18 0 0
BITMAP
3F80
3FE0
3060
3030
3030
2030
6070
60E0
7F80
7FC0
6070
6010
6018
6018
E018
E030
FFE0
FFC0
ENDCHAR

STARTCHAR C
ENCODING 67
SWIDTH 813 0
DWIDTH 20 0
BBX 18 18 1 0
BITMAP
00FC00
07FF00
0E03C0
1800C0
300000
600000
600000
C00000
C00000
C00000
C00000
C00000
600000
600000
300100
3C0780
0FFE00
03F000
ENDCHAR

STARTCHAR D
ENCODING 68
SWIDTH 744 0
DWIDTH 19 0
BBX 16 18 1 0
BITMAP
3FC0
3FF0
303C
200C
6006
6007
6003
6003
6003
6003
4003
4003
C006
C00E
C01C
C038
FFF0
FF80
ENDCHAR

STARTCHAR E
ENCODING 69
SWIDTH 536 0
DWIDTH 13 0
BBX 12 18 1 0
BITMAP
3FF0
3FF0
2000
2000
6000
6000
6000
6000
7FE0
7FE0
4000
C000
C000
C000
C000
C000
FFC0
FFC0
ENDCHAR

STARTCHAR F
ENCODING 70
SWIDTH 485 0
DWIDTH 12 0
BBX 11 18 1 0
BITMAP
3FE0
3FC0
2000
2000
6000
6000
6000
7FC0
7F80
4000
4000
C000
C000
C000
C000
C000
C000
8000
ENDCHAR

STARTCHAR G
ENCODING 71
SWIDTH 872 0
DWIDTH 22 0
BBX 19 18 1 0
BITMAP
00F800
07FF00
0E0380
3801E0
300040
600000
600000
C00000
C00000
C03FE0
C03FE0
C00060
6000C0
6001C0
300380
1C0700
0FFE00
01F000
ENDCHAR

STARTCHAR H
ENCODING 72
SWIDTH 683 0
DWIDTH 17 0
BBX 15 18 1 0
BITMAP
3006
3006
2004
200C
600C
600C
600C
7FFC
7FFC
4008
4008
C018
C018
C018
C018
C018
C018
8010
ENDCHAR

STARTCHAR I
ENCODING 73
SWIDTH 226 0
DWIDTH 6 0
BBX 4 18 1 0
BITMAP
30
30
20
60
60
60
60
60
60
40
C0
C0
C0
C0
C0
C0
80
80
ENDCHAR

STARTCHAR J
ENCODING 74
SWIDTH 482 0
DWIDTH 12 0
BBX 10 18 0 0
BITMAP
00C0
00C0
00C0
00C0
0080
0080
0180
0180
0180
0180
0180
0180
0100
0300
0300
C300
7E00
3C00
ENDCHAR

STARTCHAR K
ENCODING 75
SWIDTH 591 0
DWIDTH 15 0
BBX 14 18 1 0
BITMAP
301C
3030
20E0
21C0
6380
6700
6C00
7800
7000
5800
4C00
CE00
C700
C380
C1C0
C0C0
C060
8030
ENDCHAR

STARTCHAR L
ENCODING 76
SWIDTH 462 0
DWIDTH 12 0
BBX 9 18 1 0
BITMAP
3000
3000
3000
2000
6000
6000
6000
6000
6000
6000
4000
4000
C000
C000
C000
C000
FF80
FF80
ENDCHAR

STARTCHAR M
ENCODING 77
SWIDTH 919 0
DWIDTH 23 0
BBX 20 18 0 0
BITMAP
040010
040010
0C0030
0C0070
0E0070
1A00F0
1B00F0
1B01B0
330330
318330
318630
208C30
60CC30
60D830
607030
C07030
C06030
C02030
ENDCHAR

STARTCHAR N
ENCODING 78
SWIDTH 740 0
DWIDTH 18 0
BBX 16 18 1 0
BITMAP
2003
2003
3003
3803
6C03
6C02
6602
6306
6386
6186
40C6
C066
C074
C034
C01C
C00C
C00C
8004
ENDCHAR

STARTCHAR O
ENCODING 79
SWIDTH 869 0
DWIDTH 22 0
BBX 19 18 1 0
BITMAP
00F800
07FF00
0E0380
1801C0
3000C0
600060
600060
C00060
C00060
C00060
C00060
C000C0
C000C0
600180
700300
380E00
0FFC00
03E000
ENDCHAR

STARTCHAR P
ENCODING 80
SWIDTH 592 0
DWIDTH 15 0
BBX 13 18 1 0
BITMAP
3FC0
3FF0
3038
3018
2018
6018
6038
6070
7FE0
7F80
6000
6000
4000
C000
C000
C000
C000
C000
ENDCHAR

STARTCHAR Q
ENCODING 81
SWIDTH 871 0
DWIDTH 22 0
BBX 19 18 1 0
BITMAP
00F800
07FF00
0E0380
1801C0
3000C0
600060
600060
C00060
C00060
C00060
C00060
C000C0
C018C0
600D80
700700
380F00
0FFD80
03E0E0
ENDCHAR

STARTCHAR R
ENCODING 82
SWIDTH 607 0
DWIDTH 15 0
BBX 13 18 1 0
BITMAP
1FC0
3FF0
3038
3018
3018
3018
3038
2070
7FE0
7F80
6600
6300
6300
6180
60C0
C0E0
C060
C030
ENDCHAR

STARTCHAR S
ENCODING 83
SWIDTH 498 0
DWIDTH 12 0
BBX 11 18 0 0
BITMAP
0F00
1FC0
38E0
3060
3000
3000
1800
0C00
0600
0300
0180
00C0
00C0
80C0
C0C0
E180
7F00
1C00
ENDCHAR

STARTCHAR T
ENCODING 84
SWIDTH 426 0
DWIDTH 11 0
BBX 11 18 1 0
BITMAP
FFE0
FFC0
0C00
0C00
0800
0800
1800
1800
1800
1800
1800
1800
1000
3000
3000
3000
3000
3000
ENDCHAR

STARTCHAR U
ENCODING 85
SWIDTH 655 0
DWIDTH 16 0
BBX 14 18 1 0
BITMAP
300C
200C
600C
600C
6008
6008
6018
6018
4018
C018
C018
C010
C030
C030
C070
60E0
3FC0
1F00
ENDCHAR

STARTCHAR V
ENCODING 86
SWIDTH 702 0
DWIDTH 18 0
BBX 16 18 2 0
BITMAP
8003
C006
C006
400C
600C
6018
2030
3030
3060
3060
18C0
1980
1980
0F00
0F00
0E00
0400
0400
ENDCHAR

STARTCHAR W
ENCODING 87
SWIDTH 960 0
DWIDTH 24 0
BBX 22 18 2 0
BITMAP
80200C
C0200C
C07018
C07018
C0F030
40D030
419860
619860
6318C0
6308C0
660C80
260D80
3C0D00
3C0700
380600
300600
100600
100400
ENDCHAR

STARTCHAR X
ENCODING 88
SWIDTH 609 0
DWIDTH 15 0
BBX 16 18 -1 0
BITMAP
0C03
0C06
060C
061C
0318
0330
01A0
01E0
00C0
01C0
0340
0660
0E60
0C30
1830
3018
7018
E00C
ENDCHAR

STARTCHAR Y
ENCODING 89
SWIDTH 592 0
DWIDTH 15 0
BBX 14 18 1 0
BITMAP
C00C
6018
6038
3030
3060
10C0
1980
0B00
0F00
0600
0400
0C00
0C00
0C00
0C00
0C00
0C00
0800
ENDCHAR

STARTCHAR Z
ENCODING 90
SWIDTH 480 0
DWIDTH 12 0
BBX 12 18 0 0
BITMAP
1FF0
3FE0
0060
00C0
0080
0180
0300
0300
0600
0600
0C00
0C00
1800
1800
3000
6000
7FC0
FFC0
ENDCHAR

STARTCHAR bracketleft
ENCODING 91
SWIDTH 351 0
DWIDTH 9 0
BBX 8 23 1 -5
BITMAP
1F
1E
18
18
18
10
10
30
30
30
30
30
20
20
60
60
60
60
60
40
40
F8
F0
ENDCHAR

STARTCHAR backslash
ENCODING 92
SWIDTH 605 0
DWIDTH 15 0
BBX 13 21 1 -3
BITMAP
C000
4000
6000
3000
3000
1800
1800
0C00
0400
0600
0300
0300
0180
0180
00C0
00C0
0060
0030
0030
0018
0018
ENDCHAR

STARTCHAR bracketright
ENCODING 93
SWIDTH 351 0
DWIDTH 9 0
BBX 7 23 -1 -5
BITMAP
1E
1E
06
06
06
04
04
0C
0C
0C
0C
0C
08
08
18
18
18
18
18
10
10
F0
F0
ENDCHAR

STARTCHAR asciicircum
ENCODING 94
SWIDTH 672 0
DWIDTH 17 0
BBX 13 14 2 4
BITMAP
0200
0700
0500
0D80
0980
18C0
10C0
3060
2060
6020
6030
4010
C018
8008
ENDCHAR

STARTCHAR underscore
ENCODING 95
SWIDTH 500 0
DWIDTH 13 0
BBX 13 1 0 -3
BITMAP
FFF8
ENDCHAR

STARTCHAR quoteleft
ENCODING 96
SWIDTH 351 0
DWIDTH 9 0
BBX 2 7 4 11
BITMAP
40
40
80
80
C0
C0
C0
ENDCHAR

STARTCHAR a
ENCODING 97
SWIDTH 683 0
DWIDTH 17 0
BBX 15 14 1 0
BITMAP
07C6
1FF6
381E
700C
600C
C00C
C004
C00C
C00C
C00C
601C
7078
3FC8
0F18
ENDCHAR

STARTCHAR b
ENCODING 98
SWIDTH 682 0
DWIDTH 17 0
BBX 15 18 1 0
BITMAP
1000
3000
3000
3000
31C0
27F8
381C
300C
6006
6006
6006
6006
6006
600C
601C
D838
CFF0
C7C0
ENDCHAR

STARTCHAR c
ENCODING 99
SWIDTH 647 0
DWIDTH 16 0
BBX 14 14 1 0
BITMAP
07E0
1FF8
381C
700C
6000
C000
C000
C000
C000
C000
6010
7038
3FF0
0F80
ENDCHAR

STARTCHAR d
ENCODING 100
SWIDTH 685 0
DWIDTH 17 0
BBX 16 18 1 0
BITMAP
0003
0002
0006
0006
03C6
0FF6
381E
700E
600C
C00C
C004
C00C
C00C
C00C
601C
7078
3FC8
0F18
ENDCHAR

STARTCHAR e
ENCODING 101
SWIDTH 650 0
DWIDTH 16 0
BBX 14 14 1 0
BITMAP
03C0
0FF0
3838
3018
600C
400C
FFFC
FFFC
C000
C000
6010
7070
3FE0
0F80
ENDCHAR

STARTCHAR f
ENCODING 102
SWIDTH 314 0
DWIDTH 8 0
BBX 7 20 1 0
BITMAP
0C
1E
32
30
30
30
FC
20
60
60
60
60
60
60
40
40
C0
C0
C0
C0
ENDCHAR

STARTCHAR g
ENCODING 103
SWIDTH 673 0
DWIDTH 17 0
BBX 15 19 1 -5
BITMAP
07C6
1FE6
3834
701C
600C
C00C
C00C
C00C
C00C
C018
6008
7078
3FD8
0718
0018
C030
6070
7FC0
0F00
ENDCHAR

STARTCHAR h
ENCODING 104
SWIDTH 610 0
DWIDTH 15 0
BBX 13 18 0 0
BITMAP
1800
1000
1000
3000
31C0
37F0
3C30
3018
3018
2018
6018
6018
6010
6010
6030
4030
4030
C030
ENDCHAR

STARTCHAR i
ENCODING 105
SWIDTH 200 0
DWIDTH 5 0
BBX 5 19 0 0
BITMAP
18
38
10
00
00
30
30
20
20
20
60
60
60
60
60
40
40
C0
C0
ENDCHAR

STARTCHAR j
ENCODING 106
SWIDTH 203 0
DWIDTH 5 0
BBX 7 24 -2 -5
BITMAP
06
0E
04
00
00
0C
0C
0C
08
08
18
18
18
18
18
10
10
30
30
30
30
20
E0
C0
ENDCHAR

STARTCHAR k
ENCODING 107
SWIDTH 502 0
DWIDTH 13 0
BBX 11 18 1 0
BITMAP
3000
3000
2000
2000
60E0
61C0
6380
6600
5C00
7800
7000
D800
DC00
CE00
C700
8380
8180
80E0
ENDCHAR

STARTCHAR l
ENCODING 108
SWIDTH 200 0
DWIDTH 5 0
BBX 4 19 0 0
BITMAP
10
10
30
30
30
30
30
20
20
60
60
60
60
60
40
40
C0
C0
C0
ENDCHAR

STARTCHAR m
ENCODING 109
SWIDTH 938 0
DWIDTH 23 0
BBX 21 14 0 0
BITMAP
3381E0
2FE7F0
387C38
703818
603018
603018
603018
603018
602010
402010
C06030
C06030
C06030
C06030
ENDCHAR

STARTCHAR n
ENCODING 110
SWIDTH 610 0
DWIDTH 15 0
BBX 13 14 0 0
BITMAP
33C0
37F0
3C30
3018
3018
2018
6018
6018
6010
6010
6030
4030
4030
C030
ENDCHAR

STARTCHAR o
ENCODING 111
SWIDTH 655 0
DWIDTH 16 0
BBX 14 14 1 0
BITMAP
07C0
1FF0
3838
6018
600C
C00C
C00C
C00C
C00C
C018
6018
7070
3FE0
0F00
ENDCHAR

STARTCHAR p
ENCODING 112
SWIDTH 682 0
DWIDTH 17 0
BBX 15 19 1 -5
BITMAP
33E0
37F8
381C
700C
6006
6006
6006
6006
6006
600C
601C
D838
DFF0
C7C0
C000
C000
C000
8000
8000
ENDCHAR

STARTCHAR q
ENCODING 113
SWIDTH 682 0
DWIDTH 17 0
BBX 15 19 1 -5
BITMAP
07C6
1FF6
381E
700C
600C
C00C
C004
C00C
C00C
C00C
601C
7078
3FD8
0F98
0018
0018
0018
0018
0010
ENDCHAR

STARTCHAR r
ENCODING 114
SWIDTH 301 0
DWIDTH 8 0
BBX 8 14 0 0
BITMAP
27
6F
78
70
60
60
60
40
40
C0
C0
C0
C0
C0
ENDCHAR

STARTCHAR s
ENCODING 115
SWIDTH 388 0
DWIDTH 10 0
BBX 8 14 0 0
BITMAP
1E
3F
61
60
60
30
1C
0E
03
03
43
C7
FE
3C
ENDCHAR

STARTCHAR t
ENCODING 116
SWIDTH 339 0
DWIDTH 8 0
BBX 7 18 1 0
BITMAP
18
18
18
10
FE
FE
30
30
30
30
30
20
20
20
60
60
60
60
ENDCHAR

STARTCHAR u
ENCODING 117
SWIDTH 608 0
DWIDTH 15 0
BBX 13 14 1 0
BITMAP
6018
6010
6010
4030
4030
C030
C030
C030
C020
C060
C060
60C0
3F80
0E00
ENDCHAR

STARTCHAR v
ENCODING 118
SWIDTH 554 0
DWIDTH 14 0
BBX 12 14 1 0
BITMAP
C030
C030
C060
60C0
60C0
6180
3180
3300
3300
1E00
1C00
0C00
0800
0800
ENDCHAR

STARTCHAR w
ENCODING 119
SWIDTH 831 0
DWIDTH 21 0
BBX 19 14 1 0
BITMAP
C04060
C04060
40C0C0
60E0C0
61E180
636180
233300
363300
363600
1C1E00
1C1C00
181C00
180800
080800
ENDCHAR

STARTCHAR x
ENCODING 120
SWIDTH 480 0
DWIDTH 12 0
BBX 11 14 0 0
BITMAP
E060
60E0
30C0
3180
1B00
0F00
0E00
0E00
1E00
1B00
3180
6180
60C0
C0E0
ENDCHAR

STARTCHAR y
ENCODING 121
SWIDTH 536 0
DWIDTH 13 0
BBX 12 19 1 -5
BITMAP
C030
C030
C060
6060
60C0
6180
3180
3300
3300
1E00
1E00
0C00
1800
1800
3000
3000
6000
6000
C000
ENDCHAR

STARTCHAR z
ENCODING 122
SWIDTH 425 0
DWIDTH 11 0
BBX 11 14 -1 0
BITMAP
3FE0
00C0
01C0
0180
0300
0300
0600
0E00
0C00
1800
1800
3000
6000
FFE0
ENDCHAR

STARTCHAR braceleft
ENCODING 123
SWIDTH 351 0
DWIDTH 9 0
BBX 9 23 1 -5
BITMAP
0380
0780
0C00
0C00
0C00
1C00
1800
1800
1800
3800
7000
C000
E000
3000
3000
3000
3000
7000
7000
6000
6000
7000
3800
ENDCHAR

STARTCHAR bar
ENCODING 124
SWIDTH 672 0
DWIDTH 17 0
BBX 2 23 7 -5
BITMAP
C0
C0
C0
C0
C0
C0
C0
C0
C0
C0
C0
C0
C0
C0
C0
C0
C0
C0
C0
C0
C0
C0
C0
ENDCHAR

STARTCHAR braceright
ENCODING 125
SWIDTH 351 0
DWIDTH 9 0
BBX 9 24 -3 -6
BITMAP
0E00
0F00
0300
0300
0300
0700
0700
0600
0600
0600
0700
0180
0380
0600
0E00
0C00
0C00
0C00
0C00
1800
1800
1800
F000
E000
ENDCHAR

STARTCHAR asciitilde
ENCODING 126
SWIDTH 606 0
DWIDTH 15 0
BBX 13 4 1 7
BITMAP
3C00
FF18
C3F8
00E0
ENDCHAR

STARTCHAR space
ENCODING 160
SWIDTH 277 0
DWIDTH 8 0
BBX 0 0 0 0
BITMAP
ENDCHAR

STARTCHAR Aogonek
ENCODING 161
SWIDTH 740 0
DWIDTH 18 0
BBX 18 23 -1 -5
BITMAP
002000
002000
007000
007000
00D000
019800
019800
030800
030C00
060400
0FFE00
0FFE00
180600
180300
300300
600300
600180
C00080
000100
000200
000200
000300
0003C0
ENDCHAR

STARTCHAR breve
ENCODING 162
SWIDTH 453 0
DWIDTH 11 0
BBX 8 2 3 16
BITMAP
C7
7C
ENDCHAR

STARTCHAR Lslash
ENCODING 163
SWIDTH 517 0
DWIDTH 13 0
BBX 11 18 0 0
BITMAP
0C00
0800
1800
1800
1800
1800
1900
1B00
1E00
7800
F000
B000
3000
3000
3000
2000
7FE0
7FE0
ENDCHAR

STARTCHAR currency
ENCODING 164
SWIDTH 554 0
DWIDTH 14 0
BBX 13 13 0 2
BITMAP
4F90
EFF8
3070
6030
C018
C018
C018
C018
C018
6030
7070
EFD8
4F88
ENDCHAR

STARTCHAR Lcaron
ENCODING 165
SWIDTH 462 0
DWIDTH 12 0
BBX 9 18 1 0
BITMAP
3300
3700
3700
2600
6200
6600
6400
6000
6000
6000
4000
4000
C000
C000
C000
C000
FF80
FF80
ENDCHAR

STARTCHAR Sacute
ENCODING 166
SWIDTH 498 0
DWIDTH 12 0
BBX 11 23 0 0
BITMAP
00E0
0180
0300
0E00
0000
0F00
1FC0
38E0
3060
3000
3000
1800
0C00
0600
0300
0180
00C0
00C0
80C0
C0C0
E180
7F00
1C00
ENDCHAR

STARTCHAR section
ENCODING 167
SWIDTH 615 0
DWIDTH 15 0
BBX 13 24 0 -5
BITMAP
03C0
0FF0
0C30
1818
1800
1800
0C00
0700
1F80
30E0
6070
6030
6030
3020
1CE0
0F80
0700
0180
00C0
00C0
C0C0
6180
7F80
1E00
ENDCHAR

STARTCHAR dieresis
ENCODING 168
SWIDTH 369 0
DWIDTH 9 0
BBX 8 3 2 16
BITMAP
63
E7
C6
ENDCHAR

STARTCHAR Scaron
ENCODING 169
SWIDTH 498 0
DWIDTH 12 0
BBX 12 22 0 0
BITMAP
3870
0DC0
0780
0000
0F00
1FC0
38E0
3060
3000
3000
1800
0C00
0600
0300
0180
00C0
00C0
80C0
C0C0
E180
7F00
1C00
ENDCHAR

STARTCHAR Scommaaccent
ENCODING 170
SWIDTH 498 0
DWIDTH 12 0
BBX 11 23 0 -5
BITMAP
0F00
1FC0
38E0
3060
3000
3000
1800
0C00
0600
0300
0180
00C0
00C0
80C0
C0C0
E180
7F00
3E00
0000
1800
1800
0800
1000
ENDCHAR

STARTCHAR Tcaron
ENCODING 171
SWIDTH 426 0
DWIDTH 11 0
BBX 11 22 1 0
BITMAP
79C0
1D00
0E00
0000
FFE0
FFC0
0C00
0C00
0800
0800
1800
1800
1800
1800
1800
1800
1000
3000
3000
3000
3000
3000
ENDCHAR

STARTCHAR Zacute
ENCODING 172
SWIDTH 480 0
DWIDTH 12 0
BBX 12 23 0 0
BITMAP
00E0
0180
0300
0600
0000
1FF0
3FE0
0060
00C0
0080
0180
0300
0300
0600
0600
0C00
0C00
1800
1800
3000
6000
7FC0
FFC0
ENDCHAR

STARTCHAR hyphen
ENCODING 173
SWIDTH 332 0
DWIDTH 8 0
BBX 7 1 0 6
BITMAP
FE
ENDCHAR

STARTCHAR Zcaron
ENCODING 174
SWIDTH 480 0
DWIDTH 12 0
BBX 12 22 0 0
BITMAP
1C70
07C0
0380
0000
1FF0
3FE0
0060
00C0
0080
0180
0300
0300
0600
0600
0C00
0C00
1800
1800
3000
6000
7FC0
FFC0
ENDCHAR

STARTCHAR Zdotaccent
ENCODING 175
SWIDTH 480 0
DWIDTH 12 0
BBX 11 22 1 0
BITMAP
0300
0700
0600
0000
3FE0
3FE0
00C0
0080
0180
0300
0300
0600
0600
0C00
0C00
1800
1000
3000
6000
4000
FF80
FF80
ENDCHAR

STARTCHAR degree
ENCODING 176
SWIDTH 400 0
DWIDTH 10 0
BBX 8 8 2 10
BITMAP
3C
66
C3
81
81
C3
66
3C
ENDCHAR

STARTCHAR aogonek
ENCODING 177
SWIDTH 683 0
DWIDTH 17 0
BBX 15 18 1 -4
BITMAP
07C6
1FE6
3834
700C
600C
C00C
C00C
C00C
C00C
C01C
6008
7078
3FD8
0F18
0030
0020
0030
003C
ENDCHAR

STARTCHAR ogonek
ENCODING 178
SWIDTH 302 0
DWIDTH 8 0
BBX 4 5 2 -5
BITMAP
60
C0
80
C0
F0
ENDCHAR

STARTCHAR lslash
ENCODING 179
SWIDTH 300 0
DWIDTH 8 0
BBX 7 19 0 0
BITMAP
0C
0C
08
08
18
18
1A
1A
1C
78
F0
B0
30
30
30
30
20
20
60
ENDCHAR

STARTCHAR acute
ENCODING 180
SWIDTH 375 0
DWIDTH 9 0
BBX 6 4 4 16
BITMAP
1C
38
70
C0
ENDCHAR

STARTCHAR lcaron
ENCODING 181
SWIDTH 200 0
DWIDTH 5 0
BBX 7 19 0 0
BITMAP
16
16
36
32
34
34
30
20
20
60
60
60
60
60
40
40
C0
C0
C0
ENDCHAR

STARTCHAR sacute
ENCODING 182
SWIDTH 388 0
DWIDTH 10 0
BBX 9 20 0 0
BITMAP
0380
0700
0600
1C00
0000
0000
1E00
3F00
6100
6000
6000
3000
1C00
0E00
0300
0300
4300
C700
FE00
3C00
ENDCHAR

STARTCHAR caron
ENCODING 183
SWIDTH 502 0
DWIDTH 13 0
BBX 9 3 3 16
BITMAP
E380
7600
3C00
ENDCHAR

STARTCHAR commaaccent
ENCODING 184
SWIDTH 333 0
DWIDTH 8 0
BBX 2 4 3 -5
BITMAP
C0
C0
40
40
ENDCHAR

STARTCHAR scaron
ENCODING 185
SWIDTH 388 0
DWIDTH 10 0
BBX 10 19 0 0
BITMAP
71C0
3B00
1E00
0000
0000
1E00
3F00
6100
6000
6000
3000
1C00
0E00
0300
0300
4300
C700
FE00
3C00
ENDCHAR

STARTCHAR scommaaccent
ENCODING 186
SWIDTH 388 0
DWIDTH 10 0
BBX 8 19 0 -5
BITMAP
1E
3F
61
60
60
30
1C
0E
03
03
43
C7
FE
3C
00
30
30
10
10
ENDCHAR

STARTCHAR tcaron
ENCODING 187
SWIDTH 377 0
DWIDTH 9 0
BBX 7 18 2 0
BITMAP
02
16
32
34
FC
FC
20
20
60
60
60
60
60
60
40
40
C0
C0
ENDCHAR

STARTCHAR zacute
ENCODING 188
SWIDTH 425 0
DWIDTH 11 0
BBX 11 21 -1 0
BITMAP
00E0
01C0
0380
0700
0000
0000
0000
3FE0
00C0
01C0
0180
0300
0300
0600
0E00
0C00
1800
1800
3000
6000
FFE0
ENDCHAR

STARTCHAR hungarumlaut
ENCODING 189
SWIDTH 552 0
DWIDTH 14 0
BBX 10 4 4 16
BITMAP
1DC0
3300
6600
CC00
ENDCHAR

STARTCHAR zcaron
ENCODING 190
SWIDTH 425 0
DWIDTH 11 0
BBX 12 20 -1 0
BITMAP
1870
0DC0
0780
0000
0000
0000
3FE0
00C0
01C0
0180
0300
0300
0600
0E00
0C00
1800
1800
3000
6000
FFE0
ENDCHAR

STARTCHAR zdotaccent
ENCODING 191
SWIDTH 425 0
DWIDTH 11 0
BBX 11 19 -1 0
BITMAP
0300
0700
0200
0000
0000
3FE0
00C0
0180
0180
0300
0600
0600
0C00
1C00
1800
3000
3000
6000
FFC0
ENDCHAR

STARTCHAR Racute
ENCODING 192
SWIDTH 607 0
DWIDTH 15 0
BBX 13 23 1 0
BITMAP
0070
00C0
0180
0300
0000
1FC0
3FF0
3038
3018
3018
3018
3038
2070
7FE0
7F80
6600
6300
6300
6180
60C0
C0E0
C060
C030
ENDCHAR

STARTCHAR Aacute
ENCODING 193
SWIDTH 740 0
DWIDTH 18 0
BBX 16 23 0 0
BITMAP
001C
0038
0030
00E0
0000
0020
0060
0060
00F0
01B0
01B0
0318
0318
0618
0C0C
0FFC
1FFC
1806
3006
3002
6003
C003
C003
ENDCHAR

STARTCHAR Acircumflex
ENCODING 194
SWIDTH 740 0
DWIDTH 18 0
BBX 16 22 0 0
BITMAP
0070
00D8
038E
0000
0020
0060
0060
00F0
01B0
01B0
0318
0318
0618
0C0C
0FFC
1FFC
1806
3006
3002
6003
C003
C003
ENDCHAR

STARTCHAR Abreve
ENCODING 195
SWIDTH 740 0
DWIDTH 18 0
BBX 16 22 0 0
BITMAP
038E
01F8
0000
0000
0020
0060
0060
00F0
01B0
01B0
0318
0318
0618
0C0C
0FFC
1FFC
1806
3006
3002
6003
C003
C003
ENDCHAR

STARTCHAR Adieresis
ENCODING 196
SWIDTH 740 0
DWIDTH 18 0
BBX 17 22 -1 0
BITMAP
00C600
01CE00
018C00
000000
001000
003000
007000
007000
00D800
00D800
019800
030C00
030C00
060400
07FE00
0FFE00
180200
180300
300300
300100
600180
C00180
ENDCHAR

STARTCHAR Lacute
ENCODING 197
SWIDTH 462 0
DWIDTH 12 0
BBX 10 23 1 0
BITMAP
01C0
0380
0600
0C00
0000
3000
3000
3000
2000
6000
6000
6000
6000
6000
6000
4000
4000
C000
C000
C000
C000
FF80
FF80
ENDCHAR

STARTCHAR Cacute
ENCODING 198
SWIDTH 813 0
DWIDTH 20 0
BBX 18 23 1 0
BITMAP
000C00
001800
003000
00E000
000000
00FC00
07FF00
0E03C0
1800C0
300000
600000
600000
C00000
C00000
C00000
C00000
C00000
600000
600000
300100
1C0780
0FFE00
03F000
ENDCHAR

STARTCHAR Ccedilla
ENCODING 199
SWIDTH 813 0
DWIDTH 20 0
BBX 18 22 1 -4
BITMAP
00FC00
07FF00
0E03C0
1800C0
300000
600000
600000
C00000
C00000
C00000
C00000
C00000
600000
600000
300100
1C0780
0FFE00
01F000
008000
01C000
00C000
078000
ENDCHAR

STARTCHAR Ccaron
ENCODING 200
SWIDTH 813 0
DWIDTH 20 0
BBX 18 22 1 0
BITMAP
01C700
00EC00
007800
000000
00FC00
07FF00
0E03C0
1800C0
300000
600000
600000
C00000
C00000
C00000
C00000
C00000
600000
600000
300100
1C0780
0FFE00
03F000
ENDCHAR

STARTCHAR Eacute
ENCODING 201
SWIDTH 536 0
DWIDTH 13 0
BBX 12 23 1 0
BITMAP
00E0
01C0
0380
0600
0000
3FF0
3FF0
2000
2000
6000
6000
6000
6000
7FE0
7FE0
4000
C000
C000
C000
C000
C000
FFC0
FFC0
ENDCHAR

STARTCHAR Eogonek
ENCODING 202
SWIDTH 536 0
DWIDTH 13 0
BBX 12 23 1 -5
BITMAP
3FF0
3FF0
3000
3000
3000
2000
6000
6000
7FE0
7FE0
6000
6000
6000
4000
C000
C000
FFC0
FFC0
0100
0300
0200
0300
03C0
ENDCHAR

STARTCHAR Edieresis
ENCODING 203
SWIDTH 536 0
DWIDTH 13 0
BBX 13 22 0 0
BITMAP
0630
0E70
0C60
0000
1FF8
3FF0
3000
3000
3000
3000
3000
3000
3FF0
7FE0
6000
6000
6000
6000
6000
4000
FFC0
FFC0
ENDCHAR

STARTCHAR Ecaron
ENCODING 204
SWIDTH 536 0
DWIDTH 13 0
BBX 12 22 1 0
BITMAP
1CF0
0E80
0700
0000
3FF0
3FF0
2000
2000
6000
6000
6000
6000
7FE0
7FE0
4000
C000
C000
C000
C000
C000
FFC0
FFC0
ENDCHAR

STARTCHAR Iacute
ENCODING 205
SWIDTH 226 0
DWIDTH 6 0
BBX 7 23 1 0
BITMAP
0E
1C
38
60
00
30
30
20
60
60
60
60
60
60
40
C0
C0
C0
C0
C0
C0
80
80
ENDCHAR

STARTCHAR Icircumflex
ENCODING 206
SWIDTH 226 0
DWIDTH 6 0
BBX 8 22 0 0
BITMAP
1C
76
C3
00
18
18
10
30
30
30
30
30
30
20
60
60
60
60
60
60
40
40
ENDCHAR

STARTCHAR Dcaron
ENCODING 207
SWIDTH 744 0
DWIDTH 19 0
BBX 16 22 1 0
BITMAP
073C
03A0
01C0
0000
3FC0
3FF0
303C
200C
6006
6002
6003
6003
6003
6003
4003
4002
C006
C00E
C01C
C038
FFF0
FF80
ENDCHAR

STARTCHAR Dcroat
ENCODING 208
SWIDTH 790 0
DWIDTH 20 0
BBX 17 18 1 0
BITMAP
1FE000
1FF800
181E00
100600
300300
300100
300180
300180
FF0180
FF0180
200180
200100
600300
600700
600E00
601C00
7FF800
7FC000
ENDCHAR

STARTCHAR Nacute
ENCODING 209
SWIDTH 740 0
DWIDTH 18 0
BBX 16 23 1 0
BITMAP
0038
0060
00C0
0180
0000
2003
2003
3003
3803
6C03
6C02
6602
6306
6386
6186
40C6
C066
C074
C034
C01C
C00C
C00C
8004
ENDCHAR

STARTCHAR Ncaron
ENCODING 210
SWIDTH 740 0
DWIDTH 18 0
BBX 16 22 1 0
BITMAP
073C
03A0
01C0
0000
2003
2003
3003
3803
6C03
6C02
6602
6306
6386
6186
40C6
C066
C074
C034
C01C
C00C
C00C
8004
ENDCHAR

STARTCHAR Oacute
ENCODING 211
SWIDTH 869 0
DWIDTH 22 0
BBX 19 23 1 0
BITMAP
000E00
001C00
001800
007000
000000
00F800
07FE00
0E0380
1801C0
3000C0
600060
600060
C00060
C00060
C00060
C00060
C000C0
C000C0
600180
700300
380E00
0FFC00
03E000
ENDCHAR

STARTCHAR Ocircumflex
ENCODING 212
SWIDTH 869 0
DWIDTH 22 0
BBX 19 22 1 0
BITMAP
003000
007800
03CE00
000000
00F800
07FE00
0E0380
1801C0
3000C0
600060
600060
C00060
C00060
C00060
C00060
C000C0
C000C0
600180
700300
380E00
0FFC00
03E000
ENDCHAR

STARTCHAR Ohungarumlaut
ENCODING 213
SWIDTH 869 0
DWIDTH 22 0
BBX 19 23 1 0
BITMAP
007700
006E00
00CC00
01B800
000000
01F800
07FF00
0E0380
1801C0
3000C0
600060
600060
C00060
C00060
C00060
C00060
C000C0
C000C0
600180
700300
380E00
0FFC00
03E000
ENDCHAR

STARTCHAR Odieresis
ENCODING 214
SWIDTH 869 0
DWIDTH 22 0
BBX 19 22 1 0
BITMAP
00C600
01CE00
01CC00
000000
00F800
07FE00
0E0380
1801C0
3000C0
600060
600060
C00060
C00060
C00060
C00060
C000C0
C000C0
600180
700300
380E00
0FFC00
03E000
ENDCHAR

STARTCHAR multiply
ENCODING 215
SWIDTH 606 0
DWIDTH 15 0
BBX 11 10 2 4
BITMAP
C060
60C0
3180
1B00
0E00
0E00
1B00
3180
E0E0
4040
ENDCHAR

STARTCHAR Rcaron
ENCODING 216
SWIDTH 607 0
DWIDTH 15 0
BBX 13 22 1 0
BITMAP
1E70
0740
0380
0000
1FC0
3FF0
3038
3018
3018
3018
3038
2070
7FE0
7F80
6600
6300
6300
6180
60C0
C0E0
C060
C030
ENDCHAR

STARTCHAR Uring
ENCODING 217
SWIDTH 655 0
DWIDTH 16 0
BBX 14 24 1 0
BITMAP
0380
0440
0440
0440
0380
0000
200C
2008
6008
6018
6018
6018
6018
4018
4018
C010
C030
C030
C030
C030
C060
60E0
7FC0
1F00
ENDCHAR

STARTCHAR Uacute
ENCODING 218
SWIDTH 655 0
DWIDTH 16 0
BBX 14 23 1 0
BITMAP
0038
0060
00C0
0180
0000
300C
200C
600C
600C
6008
6008
6018
6018
4018
C018
C018
C018
C030
C030
C070
60E0
7FC0
1F00
ENDCHAR

STARTCHAR Uhungarumlaut
ENCODING 219
SWIDTH 655 0
DWIDTH 16 0
BBX 14 23 1 0
BITMAP
01DC
03B0
0660
0CC0
0000
300C
200C
600C
600C
6008
6008
6018
6018
4018
C018
C018
C018
C030
C030
C070
60E0
7FC0
1F00
ENDCHAR

STARTCHAR Udieresis
ENCODING 220
SWIDTH 655 0
DWIDTH 16 0
BBX 14 22 1 0
BITMAP
0318
0738
0630
0000
3004
3004
600C
600C
600C
600C
600C
6008
4008
C018
C018
C018
C018
C030
C030
6060
3FC0
1F80
ENDCHAR

STARTCHAR Yacute
ENCODING 221
SWIDTH 592 0
DWIDTH 15 0
BBX 14 23 1 0
BITMAP
0038
0060
00C0
0180
0000
C00C
6018
6038
3030
3060
10C0
1980
0B00
0F00
0600
0400
0C00
0C00
0C00
0C00
0C00
0C00
0800
ENDCHAR

STARTCHAR Tcommaaccent
ENCODING 222
SWIDTH 426 0
DWIDTH 11 0
BBX 11 23 1 -5
BITMAP
FFE0
FFC0
0C00
0C00
0800
0800
1800
1800
1800
1800
1800
1800
1000
3000
3000
3000
3000
3000
0000
3000
6000
2000
2000
ENDCHAR

STARTCHAR germandbls
ENCODING 223
SWIDTH 554 0
DWIDTH 14 0
BBX 12 19 0 0
BITMAP
03C0
0FE0
1C30
1830
3030
3030
3060
21E0
2380
63C0
6060
6020
6030
6030
4030
4060
C0E0
CFC0
CF00
ENDCHAR

STARTCHAR racute
ENCODING 224
SWIDTH 301 0
DWIDTH 8 0
BBX 9 20 0 0
BITMAP
0380
0700
0600
1C00
0000
0000
2700
6F00
7800
7000
6000
6000
6000
4000
4000
C000
C000
C000
C000
C000
ENDCHAR

STARTCHAR aacute
ENCODING 225
SWIDTH 683 0
DWIDTH 17 0
BBX 15 20 1 0
BITMAP
0038
0060
00C0
0180
0000
0000
07C6
0FF6
381E
700C
600C
C00C
C004
C00C
C00C
C00C
601C
7078
3FC8
0F18
ENDCHAR

STARTCHAR acircumflex
ENCODING 226
SWIDTH 683 0
DWIDTH 17 0
BBX 15 19 1 0
BITMAP
01C0
03A0
0E38
0000
0000
07C6
0FF6
381E
700C
600C
C00C
C004
C00C
C00C
C00C
601C
7078
3FC8
0F18
ENDCHAR

STARTCHAR abreve
ENCODING 227
SWIDTH 683 0
DWIDTH 17 0
BBX 15 19 1 0
BITMAP
0638
03E0
0000
0000
0000
07C6
1FF6
381E
700C
600C
C00C
C004
C00C
C00C
C00C
601C
7078
3FC8
0F18
ENDCHAR

STARTCHAR adieresis
ENCODING 228
SWIDTH 683 0
DWIDTH 17 0
BBX 15 19 0 0
BITMAP
0318
0738
0630
0000
0000
03C6
0FF6
381E
300E
6006
4006
C004
C004
C00C
C00C
601C
303C
1FEC
078C
ENDCHAR

STARTCHAR lacute
ENCODING 229
SWIDTH 200 0
DWIDTH 5 0
BBX 8 23 0 0
BITMAP
0F
18
30
00
10
10
30
30
30
30
30
20
20
60
60
60
60
60
40
40
C0
C0
C0
ENDCHAR

STARTCHAR cacute
ENCODING 230
SWIDTH 647 0
DWIDTH 16 0
BBX 14 20 1 0
BITMAP
0070
00E0
00C0
0380
0000
0000
07E0
1FF8
381C
700C
6000
C000
C000
C000
C000
C000
6010
7038
3FF0
0780
ENDCHAR

STARTCHAR ccedilla
ENCODING 231
SWIDTH 647 0
DWIDTH 16 0
BBX 14 18 1 -4
BITMAP
03C0
1FF0
3818
700C
6000
C000
C000
C000
C000
C000
6010
7038
3FF0
0780
0200
0700
0100
1E00
ENDCHAR

STARTCHAR ccaron
ENCODING 232
SWIDTH 647 0
DWIDTH 16 0
BBX 14 19 1 0
BITMAP
0E38
07E0
03C0
0000
0000
07E0
1FF8
381C
700C
6000
C000
C000
C000
C000
C000
6010
7038
3FF0
0780
ENDCHAR

STARTCHAR eacute
ENCODING 233
SWIDTH 650 0
DWIDTH 16 0
BBX 14 20 1 0
BITMAP
0070
00E0
01C0
0380
0000
0000
07C0
1FF0
3838
7018
600C
C00C
FFFC
C000
C000
C000
6010
7070
3FE0
0F80
ENDCHAR

STARTCHAR eogonek
ENCODING 234
SWIDTH 650 0
DWIDTH 16 0
BBX 14 18 1 -4
BITMAP
03C0
0FF0
3838
3018
600C
400C
FFFC
FFFC
C000
C000
6010
7030
3FE0
0300
0600
0400
0600
0780
ENDCHAR

STARTCHAR edieresis
ENCODING 235
SWIDTH 650 0
DWIDTH 16 0
BBX 14 19 1 0
BITMAP
0630
0E70
0C60
0000
0000
07C0
1FF0
3838
7018
600C
C00C
FFFC
C000
C000
C000
6010
7070
3FE0
0F80
ENDCHAR

STARTCHAR ecaron
ENCODING 236
SWIDTH 650 0
DWIDTH 16 0
BBX 14 19 1 0
BITMAP
0E38
0760
03C0
0000
0000
07C0
1FF0
3838
7018
600C
C00C
FFFC
C000
C000
C000
6010
7070
3FE0
0F80
ENDCHAR

STARTCHAR iacute
ENCODING 237
SWIDTH 200 0
DWIDTH 5 0
BBX 7 20 0 0
BITMAP
0E
18
30
60
00
00
30
20
20
20
60
60
60
60
60
40
40
C0
C0
C0
ENDCHAR

STARTCHAR icircumflex
ENCODING 238
SWIDTH 200 0
DWIDTH 5 0
BBX 9 19 -2 0
BITMAP
1E00
3300
E180
0000
0000
0C00
0800
0800
0800
1800
1800
1800
1800
1800
1000
1000
3000
3000
3000
ENDCHAR

STARTCHAR dcaron
ENCODING 239
SWIDTH 689 0
DWIDTH 17 0
BBX 18 18 1 0
BITMAP
0003C0
0002C0
0006C0
000640
038680
0FF600
381E00
700E00
600C00
C00C00
C00400
C00C00
C00C00
C00C00
601C00
707800
3FC800
0F1800
ENDCHAR

STARTCHAR dcroat
ENCODING 240
SWIDTH 685 0
DWIDTH 17 0
BBX 17 18 1 0
BITMAP
000300
007F80
00FF80
000600
03C600
0FF600
381E00
700E00
600C00
C00C00
C00400
C00C00
C00C00
C00C00
601C00
707800
3FC800
0F1800
ENDCHAR

STARTCHAR nacute
ENCODING 241
SWIDTH 610 0
DWIDTH 15 0
BBX 13 20 0 0
BITMAP
0070
00C0
0180
0300
0000
0000
33C0
37F0
3C30
3018
3018
2018
6018
6018
6010
6010
6030
4030
4030
C030
ENDCHAR

STARTCHAR ncaron
ENCODING 242
SWIDTH 610 0
DWIDTH 15 0
BBX 13 19 0 0
BITMAP
0C70
06E0
0380
0000
0000
33C0
37F0
3C30
3018
3018
2018
6018
6018
6010
6010
6030
4030
4030
C030
ENDCHAR

STARTCHAR oacute
ENCODING 243
SWIDTH 655 0
DWIDTH 16 0
BBX 14 20 1 0
BITMAP
0070
00E0
01C0
0380
0000
0000
07C0
1FF0
3838
7018
600C
C00C
C00C
C00C
C00C
C018
6018
7070
3FE0
0F00
ENDCHAR

STARTCHAR ocircumflex
ENCODING 244
SWIDTH 655 0
DWIDTH 16 0
BBX 14 19 1 0
BITMAP
01C0
0760
1E70
0000
0000
07C0
1FF0
3838
7018
600C
C00C
C00C
C00C
C00C
C018
6018
7070
3FE0
0F00
ENDCHAR

STARTCHAR ohungarumlaut
ENCODING 245
SWIDTH 655 0
DWIDTH 16 0
BBX 14 20 1 0
BITMAP
01DC
0330
0660
0CC0
0000
0000
07C0
1FF0
3838
7018
600C
C00C
C00C
C00C
C00C
C018
6018
7070
3FE0
0F00
ENDCHAR

STARTCHAR odieresis
ENCODING 246
SWIDTH 655 0
DWIDTH 16 0
BBX 14 19 1 0
BITMAP
0630
0E70
0C60
0000
0000
07C0
1FF0
3838
6018
600C
C00C
C00C
C00C
C00C
C018
6018
7070
3FE0
0F00
ENDCHAR

STARTCHAR divide
ENCODING 247
SWIDTH 606 0
DWIDTH 15 0
BBX 12 12 2 3
BITMAP
0600
0600
0000
0000
0000
FFF0
FFF0
0000
0000
0600
0600
0600
ENDCHAR

STARTCHAR rcaron
ENCODING 248
SWIDTH 301 0
DWIDTH 8 0
BBX 10 19 0 0
BITMAP
71C0
3B00
1E00
0000
0000
2700
6F00
7800
7000
6000
6000
6000
4000
4000
C000
C000
C000
C000
C000
ENDCHAR

STARTCHAR uring
ENCODING 249
SWIDTH 608 0
DWIDTH 15 0
BBX 13 21 1 0
BITMAP
0380
0440
0440
0440
0380
0000
0000
6018
6018
6018
6010
6010
C030
C030
C030
C030
C020
6060
70E0
3FC0
0F00
ENDCHAR

STARTCHAR uacute
ENCODING 250
SWIDTH 608 0
DWIDTH 15 0
BBX 13 20 1 0
BITMAP
00E0
01C0
0180
0300
0000
0000
6018
6010
6010
4030
4030
C030
C030
C030
C020
C060
C060
60C0
3F80
0E00
ENDCHAR

STARTCHAR uhungarumlaut
ENCODING 251
SWIDTH 608 0
DWIDTH 15 0
BBX 13 20 1 0
BITMAP
03B8
0770
06E0
0D80
0000
0000
6018
6010
6010
4030
4030
C030
C030
C030
C020
C060
C060
60C0
3F80
0E00
ENDCHAR

STARTCHAR udieresis
ENCODING 252
SWIDTH 608 0
DWIDTH 15 0
BBX 12 19 1 0
BITMAP
0C60
1CE0
08C0
0000
0000
6030
6030
4030
4030
4030
C020
C020
C060
C060
C060
C0C0
61C0
3F80
1E00
ENDCHAR

STARTCHAR yacute
ENCODING 253
SWIDTH 536 0
DWIDTH 13 0
BBX 12 25 1 -5
BITMAP
00E0
0180
0300
0600
0000
0000
C030
C030
C060
6060
60C0
6180
3180
3300
3300
1E00
1E00
0C00
1800
1800
3000
3000
6000
6000
C000
ENDCHAR

STARTCHAR tcommaaccent
ENCODING 254
SWIDTH 339 0
DWIDTH 8 0
BBX 7 24 1 -5
BITMAP
18
18
18
18
10
FE
10
30
30
30
30
30
20
20
60
60
60
60
60
00
60
C0
40
40
ENDCHAR

STARTCHAR dotaccent
ENCODING 255
SWIDTH 222 0
DWIDTH 6 0
BBX 3 3 2 16
BITMAP
60
E0
C0
ENDCHAR
ENDFONT
